<svg width="18" height="18" viewBox="0 0 18 18" fill="none" xmlns="http://www.w3.org/2000/svg">
<path d="M13.0537 6.39104C14.2073 6.39104 15.1425 5.45584 15.1425 4.30221C15.1425 3.14858 14.2073 2.21338 13.0537 2.21338C11.9 2.21338 10.9648 3.14858 10.9648 4.30221C10.9648 5.45584 11.9 6.39104 13.0537 6.39104Z" stroke="#E96233" stroke-linecap="round" stroke-linejoin="round"/>
<path d="M4.69821 11.2651C5.85184 11.2651 6.78704 10.3299 6.78704 9.17623C6.78704 8.0226 5.85184 7.0874 4.69821 7.0874C3.54458 7.0874 2.60938 8.0226 2.60938 9.17623C2.60938 10.3299 3.54458 11.2651 4.69821 11.2651Z" stroke="#E96233" stroke-linecap="round" stroke-linejoin="round"/>
<path d="M13.0537 16.1388C14.2073 16.1388 15.1425 15.2036 15.1425 14.05C15.1425 12.8964 14.2073 11.9612 13.0537 11.9612C11.9 11.9612 10.9648 12.8964 10.9648 14.05C10.9648 15.2036 11.9 16.1388 13.0537 16.1388Z" stroke="#E96233" stroke-linecap="round" stroke-linejoin="round"/>
<path d="M6.50146 10.2275L11.257 12.9987" stroke="#E96233" stroke-linecap="round" stroke-linejoin="round"/>
<path d="M11.2501 5.35352L6.50146 8.1247" stroke="#E96233" stroke-linecap="round" stroke-linejoin="round"/>
</svg>
