<svg width="25" height="25" viewBox="0 0 25 25" fill="none" xmlns="http://www.w3.org/2000/svg">
<path d="M11.6924 12.3734C11.9482 12.7334 12.2745 13.0313 12.6493 13.2468C13.024 13.4624 13.4384 13.5905 13.8644 13.6227C14.2904 13.6548 14.7179 13.5901 15.118 13.4329C15.5181 13.2758 15.8815 13.0299 16.1834 12.712L17.9702 10.8309C18.5127 10.2396 18.8129 9.44759 18.8061 8.62555C18.7993 7.8035 18.4861 7.01715 17.9339 6.43586C17.3818 5.85457 16.6348 5.52484 15.854 5.5177C15.0731 5.51055 14.3209 5.82657 13.7592 6.39767L12.7347 7.46991" stroke="#E96233" stroke-linecap="round" stroke-linejoin="round"/>
<path d="M14.0748 11.1191C13.819 10.7591 13.4926 10.4612 13.1179 10.2457C12.7431 10.0301 12.3287 9.90194 11.9027 9.86983C11.4768 9.83771 11.0493 9.90241 10.6491 10.0595C10.249 10.2167 9.8857 10.4625 9.58379 10.7805L7.79693 12.6616C7.25444 13.2529 6.95426 14.0449 6.96105 14.8669C6.96784 15.689 7.28104 16.4753 7.8332 17.0566C8.38537 17.6379 9.13231 17.9676 9.91316 17.9748C10.694 17.9819 11.4463 17.6659 12.008 17.0948L13.0265 16.0226" stroke="#E96233" stroke-linecap="round" stroke-linejoin="round"/>
</svg>
