<svg width="269" height="92" viewBox="0 0 269 92" fill="none" xmlns="http://www.w3.org/2000/svg">
<g clip-path="url(#clip0)">
<path d="M128.062 30.136C127.427 30.136 126.792 29.8178 126.157 29.1815L120.444 18.9997C120.127 18.6815 120.127 18.3633 119.81 18.0451C119.492 17.7269 119.492 17.4087 119.175 17.0906H118.857C118.857 17.4087 118.857 17.7269 118.857 18.0451C118.857 18.3633 118.857 18.6815 118.857 19.3178V35.8633C118.857 36.8178 117.905 37.4542 116.001 37.4542H114.731C112.827 37.4542 111.875 36.8178 111.875 35.8633V7.22693C111.875 6.27238 112.827 5.63602 114.731 5.63602H117.588C118.223 5.63602 118.857 5.63602 119.492 5.9542C120.127 6.27238 120.444 6.59056 120.762 6.90874L128.379 20.2724C128.379 20.2724 128.379 20.5906 128.696 20.5906L129.014 20.9087C129.014 20.9087 129.014 20.5906 129.331 20.5906C129.648 20.5906 129.331 20.2724 129.648 20.2724L136.631 6.90874C136.948 6.59056 137.266 6.27238 137.9 5.9542C138.535 5.63602 138.853 5.63602 139.805 5.63602H142.026C143.931 5.63602 144.883 6.27238 144.883 7.22693V36.4997C144.883 37.4542 143.931 38.0906 142.026 38.0906H140.757C138.853 38.0906 137.9 37.4542 137.9 36.4997V19.636C137.9 19.3178 137.9 18.9997 137.9 18.3633C137.9 18.0451 137.9 17.7269 137.9 17.4087H137.583C137.583 17.7269 137.266 18.0451 136.948 18.3633C136.631 18.6815 136.631 18.9997 136.313 19.3178L130.601 29.4997C130.283 30.136 129.648 30.4542 128.696 30.4542H128.062V30.136Z" fill="white"/>
<path d="M155.991 38.0905C153.452 38.0905 151.865 37.4542 150.913 36.1815C149.961 34.9087 149.326 33.3178 149.326 31.4087C149.326 30.4542 149.326 29.4996 149.644 28.5451C149.961 27.5905 150.596 26.636 151.548 25.6815C152.5 24.7269 153.77 24.0905 155.356 23.7724C156.943 23.136 159.482 23.136 162.339 23.136V21.5451C162.339 20.5905 162.022 19.9542 161.387 19.636C160.752 19.3178 159.8 18.9996 158.53 18.9996C157.578 18.9996 156.626 18.9996 155.674 19.3178C154.722 19.636 154.087 19.9542 153.77 19.9542C153.135 20.2724 152.817 20.2724 152.817 20.2724C152.5 20.2724 152.183 19.9542 151.865 19.636C151.548 19.3178 151.23 18.6815 150.913 18.0451C150.596 17.4087 150.596 17.0905 150.596 16.7724C150.596 16.136 150.913 15.8178 151.865 15.1815C152.5 14.5451 153.77 14.2269 155.039 13.9087C155.991 13.5905 157.578 13.5905 159.165 13.5905C161.704 13.5905 163.608 13.9087 164.878 14.5451C166.147 15.1815 167.417 16.136 168.052 17.0905C168.687 18.3633 169.004 19.636 169.004 20.9087V29.4996C169.004 31.0905 169.004 32.3633 169.004 32.9996C169.004 33.9542 169.321 34.5905 169.321 34.9087C169.321 35.2269 169.321 35.5451 169.321 36.1815C169.321 36.4996 169.004 36.8178 168.687 36.8178C168.369 37.136 167.734 37.136 167.1 37.136C166.465 37.136 165.83 37.4542 165.513 37.4542C164.878 37.4542 164.561 37.4542 164.243 37.4542C163.608 37.4542 163.291 37.136 163.291 36.8178C162.974 36.4996 162.974 36.1814 162.656 35.5451C162.656 34.9087 162.339 34.5905 162.339 34.2724C162.339 34.5905 162.022 34.9087 161.387 35.5451C160.752 36.1814 160.117 36.4996 159.165 37.136C158.53 37.7724 157.261 38.0905 155.991 38.0905ZM158.213 32.6815C159.165 32.6815 159.8 32.3633 160.752 31.7269C161.387 31.0905 162.022 30.4542 162.339 29.8178V27.2724C161.387 27.2724 160.435 27.2724 159.482 27.5905C158.848 27.5905 157.896 27.9087 157.578 28.2269C156.943 28.5451 156.626 28.8633 156.309 29.1815C155.991 29.4996 155.991 30.136 155.991 30.7724C155.991 31.4087 156.309 31.7269 156.626 32.3633C156.943 32.6815 157.578 32.6815 158.213 32.6815Z" fill="white"/>
<path d="M177.573 46.9996C175.669 46.9996 174.717 46.3633 174.717 45.4087V21.8633C174.717 20.2724 174.717 19.3178 174.717 18.3633C174.717 17.4087 174.399 16.7724 174.399 16.4542C174.399 16.136 174.399 15.8178 174.399 15.4996C174.399 15.1815 174.717 14.8633 175.034 14.8633C175.352 14.5451 175.986 14.5451 176.621 14.5451C177.256 14.5451 177.891 14.2269 178.208 14.2269C178.843 14.2269 179.16 14.2269 179.478 14.2269C180.112 14.2269 180.43 14.5451 180.43 14.8633C180.747 15.1815 180.747 15.4996 181.064 16.136C181.064 16.136 181.064 16.4542 181.064 16.7724C181.699 15.8178 182.334 14.8633 183.604 14.2269C184.556 13.9087 185.825 13.5905 187.412 13.5905C188.999 13.5905 190.586 13.9087 191.856 14.8633C193.125 15.8178 194.077 17.0905 195.029 18.9996C195.664 20.9087 195.982 23.136 195.982 25.6815C195.982 29.4996 195.029 32.3633 193.442 34.5905C191.856 36.8178 189.316 38.0905 186.46 38.0905C185.508 38.0905 184.556 38.0905 183.604 37.7724C182.969 37.4542 182.334 37.136 181.699 36.8178V45.7269C181.699 46.6815 180.747 47.3178 178.843 47.3178H177.573V46.9996ZM184.873 32.6815C186.143 32.6815 187.412 32.0451 188.047 30.7724C188.682 29.4996 188.999 27.9087 188.999 25.6815C188.999 23.4542 188.682 21.8633 188.047 20.5905C187.412 19.3178 186.46 18.9996 185.19 18.9996C184.238 18.9996 183.604 19.3178 182.969 19.9542C182.334 20.5905 181.699 21.2269 181.382 21.8633V32.0451C181.699 32.3633 182.334 32.3633 182.651 32.6815C183.286 32.6815 183.921 32.6815 184.873 32.6815Z" fill="white"/>
<path d="M205.82 38.0905C203.281 38.0905 201.694 37.4542 200.742 36.1815C199.79 34.9087 199.155 33.3178 199.155 31.4087C199.155 30.4542 199.155 29.4996 199.473 28.5451C199.79 27.5905 200.425 26.636 201.377 25.6815C202.329 24.7269 203.599 24.0905 205.186 23.7724C206.772 23.136 209.312 23.136 212.168 23.136V21.5451C212.168 20.5905 211.851 19.9542 211.216 19.636C210.581 19.3178 209.629 18.9996 208.359 18.9996C207.407 18.9996 206.455 18.9996 205.503 19.3178C204.551 19.636 203.916 19.9542 203.599 19.9542C202.964 20.2724 202.646 20.2724 202.646 20.2724C202.329 20.2724 202.012 19.9542 201.694 19.636C201.377 19.3178 201.06 18.6815 200.742 18.0451C200.425 17.4087 200.425 17.0905 200.425 16.7724C200.425 16.136 200.742 15.8178 201.694 15.1815C202.329 14.5451 203.599 14.2269 204.868 13.9087C206.138 13.5905 207.407 13.5905 209.312 13.5905C211.851 13.5905 213.755 13.9087 215.024 14.5451C216.294 15.1815 217.564 16.136 218.198 17.0905C218.833 18.3633 219.15 19.636 219.15 20.9087V29.4996C219.15 31.0905 219.15 32.3633 219.15 32.9996C219.15 33.9542 219.468 34.5905 219.468 34.9087C219.468 35.2269 219.468 35.5451 219.468 36.1815C219.468 36.4996 219.15 36.8178 218.833 36.8178C218.516 37.136 217.881 37.136 217.246 37.136C216.611 37.136 215.977 37.4542 215.659 37.4542C215.024 37.4542 214.707 37.4542 214.39 37.4542C213.755 37.4542 213.438 37.136 213.438 36.8178C213.12 36.8178 212.803 36.4996 212.803 35.8633C212.803 35.2269 212.485 34.9087 212.485 34.5905C212.485 34.9087 212.168 35.2269 211.533 35.8633C210.898 36.4996 210.264 36.8178 209.312 37.4542C208.359 37.7724 207.407 38.0905 205.82 38.0905ZM208.042 32.6815C208.994 32.6815 209.629 32.3633 210.581 31.7269C211.216 31.0905 211.851 30.4542 212.168 29.8178V27.2724C211.216 27.2724 210.264 27.2724 209.312 27.5905C208.677 27.5905 207.725 27.9087 207.407 28.2269C206.772 28.5451 206.455 28.8633 206.138 29.1815C205.82 29.4996 205.82 30.136 205.82 30.7724C205.82 31.4087 206.138 31.7269 206.455 32.3633C206.772 32.6815 207.407 32.6815 208.042 32.6815Z" fill="white"/>
<path d="M126.475 87.4087C121.396 87.4087 117.588 86.136 115.049 83.2723C112.51 80.7269 111.24 76.5905 111.24 70.8633C111.24 60.0451 116.318 54.636 126.475 54.636C127.427 54.636 128.379 54.636 129.648 54.9542C130.601 54.9542 131.553 55.2724 132.505 55.5905C133.457 55.9087 134.092 56.2269 134.727 56.5451C135.361 56.8633 135.996 57.4996 135.996 58.136C135.996 58.4542 135.679 59.0905 135.361 59.7269C135.044 60.3633 134.727 60.9996 134.092 61.636C133.774 62.2724 133.14 62.5905 132.822 62.5905C132.505 62.5905 132.188 62.5905 131.87 62.2723C131.235 61.9542 130.601 61.636 129.648 61.636C128.696 61.3178 127.427 61.3178 126.157 61.3178C123.618 61.3178 121.396 62.2723 120.127 63.8633C118.857 65.4542 118.223 67.9996 118.223 71.4996C118.223 74.9996 118.857 77.5451 120.127 79.136C121.396 81.0451 123.301 81.6814 125.84 81.6814C127.427 81.6814 128.379 81.6814 129.648 81.3633C130.601 81.0451 131.553 80.7269 132.188 80.4087C132.822 80.0905 133.14 80.0905 133.457 80.0905C134.092 80.0905 134.409 80.4087 134.727 81.0451C135.044 81.6814 135.361 82.3178 135.679 82.9542C135.996 83.5905 135.996 83.9087 135.996 84.2269C135.996 84.5451 135.996 85.1814 135.679 85.4996C135.361 85.8178 135.044 86.136 134.409 86.4542C133.774 86.7723 132.822 87.0905 131.87 87.4087C130.918 87.7269 129.966 87.7269 128.696 88.0451C128.379 87.0905 127.427 87.4087 126.475 87.4087Z" fill="white"/>
<path d="M146.47 87.4087C144.248 87.4087 142.661 86.7723 141.392 85.4996C140.439 84.2269 139.805 82.3178 139.805 79.7723V64.4996C139.805 63.5451 140.757 62.9087 142.661 62.9087H143.931C145.835 62.9087 146.787 63.5451 146.787 64.4996V78.8178C146.787 79.7723 147.105 80.4087 147.422 81.0451C147.739 81.6814 148.691 81.6814 149.644 81.6814C150.596 81.6814 151.23 81.3632 151.865 80.7269C152.5 80.0905 152.817 79.4542 153.135 79.136V64.4996C153.135 63.5451 154.087 62.9087 155.991 62.9087H157.261C159.165 62.9087 160.117 63.5451 160.117 64.4996V78.8178C160.117 80.4087 160.117 81.6814 160.117 82.3178C160.117 83.2723 160.435 83.9087 160.435 84.2269C160.435 84.5451 160.435 84.8632 160.435 85.4996C160.435 85.8178 160.117 86.136 159.8 86.136C159.482 86.4541 158.848 86.4542 158.213 86.4542C157.578 86.4542 156.943 86.7723 156.626 86.7723C155.991 86.7723 155.674 86.7723 155.356 86.7723C154.722 86.7723 154.404 86.4541 154.404 86.136C154.087 85.8178 154.087 85.4996 153.77 84.8632C153.77 84.2269 153.452 83.9087 153.452 83.5905C152.817 84.5451 151.865 85.1814 150.596 85.8178C149.326 86.7723 148.057 87.4087 146.47 87.4087Z" fill="white"/>
<path d="M171.543 87.4087C170.591 87.4087 169.639 87.4087 168.687 87.0906C167.734 86.7724 167.1 86.4542 166.465 85.8178C165.83 85.1815 165.513 84.5451 165.195 83.5906C164.878 82.636 164.878 81.6815 164.878 80.4087V54.636C164.878 53.6815 165.83 53.0451 167.734 53.0451H169.004C170.908 53.0451 171.86 53.6815 171.86 54.636V80.7269C171.86 81.3633 171.86 81.9997 172.178 82.3178C172.495 82.636 172.813 82.9542 173.447 82.9542C173.765 82.9542 173.765 82.9542 174.082 82.9542C174.399 82.9542 174.399 82.9542 174.717 82.9542C175.034 82.9542 175.352 83.2724 175.352 83.5906C175.669 84.2269 175.669 84.5451 175.986 85.1815C175.986 85.8178 175.986 86.136 175.986 86.136C175.986 86.7724 175.669 87.4087 175.034 87.7269C174.399 88.0451 173.765 88.3633 173.13 88.3633C172.495 87.0906 171.86 87.4087 171.543 87.4087Z" fill="white"/>
<path d="M185.19 87.4088C184.238 87.4088 183.286 87.4088 182.334 87.0906C181.382 86.7724 180.747 86.4542 180.112 85.8178C179.478 85.1815 179.16 84.5451 178.843 83.5906C178.525 82.636 178.525 81.6815 178.525 80.4088V68.9542H177.891C176.938 68.9542 176.621 68.3178 176.621 66.7269V66.0906C176.621 64.4997 176.938 63.8633 177.891 63.8633H178.525L179.16 59.4087C179.16 58.4542 180.112 57.8178 181.699 57.8178H182.969C184.556 57.8178 185.19 58.4542 185.19 59.4087V63.8633H187.412C188.364 63.8633 188.682 64.4997 188.682 66.0906V66.7269C188.682 68.3178 188.364 68.9542 187.412 68.9542H185.19V80.4088C185.19 81.0451 185.19 81.6815 185.508 81.9997C185.825 82.3178 186.143 82.636 186.777 82.636C187.095 82.636 187.095 82.636 187.412 82.636C187.73 82.636 187.73 82.636 188.047 82.636C188.364 82.636 188.682 82.9542 188.682 83.2724C188.999 83.9087 188.999 84.2269 189.316 84.8633C189.634 85.4997 189.634 85.8178 189.634 85.8178C189.634 86.4542 189.316 87.0906 188.682 87.4088C188.047 87.7269 187.412 88.0451 186.777 88.0451C186.143 87.0906 185.825 87.4088 185.19 87.4088Z" fill="white"/>
<path d="M199.473 87.4087C197.251 87.4087 195.664 86.7723 194.395 85.4996C193.442 84.2269 192.808 82.3178 192.808 79.7723V64.4996C192.808 63.5451 193.76 62.9087 195.664 62.9087H196.934C198.838 62.9087 199.79 63.5451 199.79 64.4996V78.8178C199.79 79.7723 200.107 80.4087 200.425 81.0451C200.742 81.6814 201.694 81.6814 202.646 81.6814C203.599 81.6814 204.233 81.3632 204.868 80.7269C205.503 80.0905 205.82 79.4542 206.138 79.136V64.4996C206.138 63.5451 207.09 62.9087 208.994 62.9087H210.264C212.168 62.9087 213.12 63.5451 213.12 64.4996V78.8178C213.12 80.4087 213.12 81.6814 213.12 82.3178C213.12 83.2723 213.438 83.9087 213.438 84.2269C213.438 84.5451 213.438 84.8632 213.438 85.4996C213.438 85.8178 213.12 86.136 212.803 86.136C212.485 86.4541 211.851 86.4542 211.216 86.4542C210.581 86.4542 209.946 86.7723 209.629 86.7723C208.994 86.7723 208.677 86.7723 208.359 86.7723C207.725 86.7723 207.407 86.4541 207.407 86.136C207.09 85.8178 207.09 85.4996 206.772 84.8632C206.772 84.2269 206.455 83.9087 206.455 83.5905C205.82 84.5451 204.868 85.1814 203.599 85.8178C202.329 86.7723 201.06 87.4087 199.473 87.4087Z" fill="white"/>
<path d="M220.737 87.0906C218.833 87.0906 217.881 86.4542 217.881 85.4997V71.1815C217.881 69.5906 217.881 68.636 217.881 67.6815C217.881 66.727 217.563 66.0906 217.563 65.7724C217.563 65.4542 217.563 65.1361 217.563 64.8179C217.563 64.4997 217.881 64.1815 218.198 64.1815C218.516 63.8633 219.15 63.8633 219.785 63.8633C220.42 63.8633 221.055 63.5451 221.372 63.5451C222.007 63.5451 222.324 63.5451 222.642 63.5451C223.276 63.5451 223.594 63.8633 223.594 64.1815C223.594 64.4997 223.911 64.8179 224.229 65.4542C224.546 66.0906 224.546 66.4088 224.546 66.727C225.181 65.7724 225.498 65.136 226.45 64.1815C227.085 63.5451 228.355 63.227 229.624 63.227C230.894 63.227 231.528 63.5451 231.846 63.8633C232.163 64.1815 232.163 64.8179 232.163 65.7724C232.163 66.0906 232.163 66.4088 231.846 67.0451C231.846 67.6815 231.528 68.3179 231.211 68.636C230.894 69.2724 230.894 69.2724 230.576 69.2724C230.259 69.2724 229.941 69.2724 229.624 68.9542C229.307 68.9542 228.989 68.636 228.354 68.636C227.72 68.636 227.085 68.636 226.768 68.9542C226.133 69.2724 225.815 69.5906 225.498 69.9088C225.181 70.227 224.863 70.5451 224.863 70.8633V85.4997C224.863 86.4542 223.911 87.0906 222.007 87.0906H220.737Z" fill="white"/>
<path d="M238.828 87.4087C236.289 87.4087 234.702 86.7723 233.75 85.4996C232.798 84.2269 232.163 82.636 232.163 80.7269C232.163 79.7723 232.163 78.8178 232.48 77.8632C232.798 76.9087 233.433 75.9541 234.385 74.9996C235.337 74.0451 236.606 73.4087 238.193 73.0905C239.78 72.4542 242.319 72.4541 245.176 72.4541V70.8632C245.176 69.9087 244.858 69.2723 244.224 68.9541C243.589 68.636 242.637 68.3178 241.367 68.3178C240.415 68.3178 239.463 68.3178 238.511 68.636C237.559 68.9541 236.924 69.2723 236.606 69.2723C235.972 69.5905 235.654 69.5905 235.654 69.5905C235.337 69.5905 235.02 69.2723 234.702 68.9541C234.385 68.636 234.067 67.9996 233.75 67.3632C233.433 66.7269 233.433 66.4087 233.433 66.0905C233.433 65.4541 233.75 65.136 234.702 64.4996C235.337 63.8632 236.606 63.5451 237.876 63.2269C239.146 62.9087 240.732 62.9087 242.319 62.9087C244.858 62.9087 246.763 63.2269 248.032 63.8632C249.302 64.4996 250.571 65.4541 251.206 66.4087C251.841 67.6814 252.158 68.9541 252.158 70.2269V78.8178C252.158 80.4087 252.158 81.6814 252.158 82.3178C252.158 83.2723 252.476 83.9087 252.476 84.2269C252.476 84.5451 252.476 84.8632 252.476 85.4996C252.476 85.8178 252.158 86.136 251.841 86.136C251.523 86.4541 250.889 86.4542 250.254 86.4542C249.619 86.4542 248.984 86.7723 248.667 86.7723C248.032 86.7723 247.715 86.7723 247.398 86.7723C246.763 86.7723 246.445 86.4541 246.445 86.136C246.128 85.8178 246.128 85.4996 245.811 84.8632C245.811 84.2269 245.493 83.9087 245.493 83.5905C245.493 83.9087 245.176 84.2269 244.541 84.8632C243.906 85.4996 243.272 85.8178 242.319 86.4542C241.367 87.0905 240.415 87.4087 238.828 87.4087ZM241.05 81.9996C242.002 81.9996 242.637 81.6814 243.589 81.0451C244.224 80.4087 244.858 79.7723 245.176 79.136V76.5905C244.224 76.5905 243.272 76.5905 242.319 76.9087C241.685 76.9087 240.732 77.2269 240.415 77.5451C239.78 77.8632 239.463 78.1814 239.146 78.4996C238.828 78.8178 238.828 79.4541 238.828 80.0905C238.828 80.7269 239.146 81.0451 239.463 81.6814C239.78 81.6814 240.415 81.9996 241.05 81.9996Z" fill="white"/>
<path d="M264.219 87.4087C263.267 87.4087 262.314 87.4087 261.362 87.0906C260.41 86.7724 259.775 86.4542 259.141 85.8178C258.506 85.1815 258.188 84.5451 257.871 83.5906C257.554 82.636 257.554 81.6815 257.554 80.4087V54.636C257.554 53.6815 258.506 53.0451 260.41 53.0451H261.68C263.584 53.0451 264.536 53.6815 264.536 54.636V80.7269C264.536 81.3633 264.536 81.9997 264.854 82.3178C265.171 82.636 265.488 82.9542 266.123 82.9542C266.44 82.9542 266.44 82.9542 266.758 82.9542C267.075 82.9542 267.075 82.9542 267.393 82.9542C267.71 82.9542 268.027 83.2724 268.027 83.5906C268.345 84.2269 268.345 84.5451 268.662 85.1815C268.662 85.8178 268.662 86.136 268.662 86.136C268.662 86.7724 268.345 87.4087 267.71 87.7269C267.075 88.0451 266.44 88.3633 265.806 88.3633C265.171 87.0906 264.536 87.4087 264.219 87.4087Z" fill="white"/>
<path d="M85.2149 24.4087C75.0587 18.9996 63.6329 15.4996 52.2071 14.2269C46.4942 13.5906 40.4639 13.5906 34.751 13.9087C29.9903 14.2269 22.3731 14.2269 19.5166 18.3633C19.1992 18.6815 18.8819 18.9996 18.5645 19.3178C18.5645 19.9542 18.2471 20.2724 17.9297 20.5906C17.9297 20.9087 17.6123 21.5451 17.6123 21.8633C16.9776 24.0906 16.6602 26.3178 16.6602 28.8633C16.6602 29.1815 16.6602 29.4996 16.6602 29.8178C16.6602 30.136 16.6602 30.4542 16.6602 30.4542C16.6602 30.7724 16.6602 30.7724 16.6602 31.0906C16.6602 31.4087 16.6602 31.7269 16.6602 32.0451C16.6602 32.3633 16.6602 32.9996 16.6602 33.3178C16.6602 33.636 16.6602 33.9542 16.6602 34.2724C16.6602 34.5906 16.6602 34.9087 16.6602 35.2269C16.6602 35.5451 16.6602 36.1815 16.6602 36.4996C16.6602 37.136 16.6602 37.7724 16.9776 38.0905C16.9776 38.7269 16.6602 39.0451 16.0254 39.3633C11.8994 41.9087 8.7256 46.3633 7.13868 51.136C5.23438 56.8633 5.23438 62.5905 5.86915 68.636C5.23438 67.6815 4.59961 66.4087 4.28223 65.4542C1.74317 59.7269 0.15625 53.3633 0.15625 46.3633C0.15625 21.2269 20.4688 0.863281 45.542 0.863281C61.7286 0.863281 76.0108 9.45419 83.9454 22.1815C84.2628 22.8178 84.8976 23.7724 85.2149 24.4087Z" fill="white"/>
<path d="M90.9278 46.3633C90.9278 55.5906 88.0714 64.1815 83.628 71.1815C83.3106 71.8178 82.6758 72.4542 82.3585 73.0906C82.0411 63.8633 80.4542 53.0451 79.8194 48.2724C79.1846 43.1815 77.5977 37.4542 73.1543 34.5906C70.9327 32.9997 66.1719 32.6815 62.0459 33.3179C61.4112 29.8179 60.459 26.3179 57.92 24.0906C53.1592 19.3179 45.2246 21.2269 38.877 23.136C35.0684 24.4088 30.625 25.9997 28.4033 29.4997C27.1338 31.7269 26.8164 34.2724 26.8164 36.8179C26.499 36.8179 26.1816 36.8179 25.8643 36.8179C23.0078 36.4997 20.4688 37.136 17.9297 38.4088C17.9297 37.7724 17.9297 37.136 17.6123 36.8179C17.6123 36.4997 17.6123 36.1815 17.6123 35.5451C17.6123 35.2269 17.6123 34.9088 17.6123 34.5906C17.6123 34.2724 17.6123 33.9542 17.6123 33.636C17.6123 33.3179 17.6123 32.6815 17.6123 32.3633C17.6123 32.0451 17.6123 31.7269 17.6123 31.4088C17.6123 31.0906 17.6123 31.0906 17.6123 30.7724C17.6123 30.4542 17.6123 30.136 17.6123 30.136C17.6123 29.8179 17.6123 29.4997 17.6123 29.1815C17.6123 26.9542 17.9297 24.4088 18.5645 22.1815C18.5645 21.8633 18.8818 21.2269 18.8818 20.9088C18.2471 20.2724 18.5645 19.9542 18.5645 19.3179C18.8818 18.9997 19.1992 18.6815 19.5166 18.3633C22.6904 14.2269 29.9902 14.2269 34.751 13.9088C40.4639 13.2724 46.4942 13.5906 52.2071 14.2269C63.6329 15.4997 75.0586 18.9997 85.2149 24.7269C85.5323 25.0451 85.8497 25.6815 85.8497 26.3179C89.0235 32.0451 90.9278 39.0451 90.9278 46.3633Z" fill="white"/>
<path d="M24.5945 86.7723C23.9597 86.4542 23.325 86.136 23.0076 85.8178C16.6599 82.3178 11.5818 77.2269 7.7732 71.1814C7.13843 70.2269 6.50366 69.2724 6.18628 68.3178C5.55151 62.5905 5.55151 56.5451 7.45581 50.8178C9.04273 46.0451 12.2166 41.5905 16.3425 39.0451C16.6599 38.7269 17.2947 38.4087 17.6121 38.4087C17.6121 39.0451 17.6121 39.6814 17.9295 40.3178C18.8816 47.9542 19.199 55.5905 20.4685 63.2269C20.7859 67.3633 22.3728 78.1814 24.5945 86.7723Z" fill="white"/>
<path d="M82.0411 73.0905C81.7237 73.7269 81.089 74.3632 80.7716 74.9996C80.7716 74.9996 80.7716 75.3178 80.4542 75.3178C72.2022 85.4996 59.5069 91.8632 45.2246 91.8632C39.5117 91.8632 33.7989 90.9087 28.7207 88.6814C27.7686 88.3632 26.8164 88.045 25.8643 87.4087C25.2295 87.0905 24.9121 86.7723 24.2774 86.4541C22.0557 77.8632 20.4688 67.045 19.834 62.9087C18.5645 55.2723 18.2471 47.6359 17.2949 39.9996C17.2949 39.3632 17.2949 38.7269 16.9775 38.0905C19.5166 36.8178 22.0557 36.1814 24.9121 36.4996C25.2295 36.4996 25.5469 36.4996 25.8643 36.4996C25.8643 37.7723 25.8643 39.045 26.1817 39.9996C26.8164 48.9087 27.7686 58.1359 28.4033 67.045C28.7207 70.2268 29.0381 73.7268 30.3076 76.5905C31.8946 79.4541 34.751 81.9996 37.9248 81.6814C41.7334 81.3632 44.5899 78.1814 45.2246 74.3632C46.1768 70.8632 45.2246 67.045 44.5899 63.545C43.3203 57.4996 42.0508 51.4541 38.877 46.3632C36.0205 41.2723 31.2598 37.1359 25.5469 36.4996C25.5469 33.9541 25.8643 31.4087 27.1338 29.1814C29.3555 25.6814 33.4815 24.0905 37.6075 22.8178C43.9551 20.9087 51.8897 18.9996 56.6504 23.7723C59.1895 25.9996 60.1417 29.4996 60.7764 32.9996C57.2852 33.3178 54.4288 34.5905 52.8419 36.4996C49.3506 41.2723 51.5723 56.545 54.1114 61.6359C56.0157 65.1359 60.459 67.6814 63.9503 65.7723C63.6329 55.2723 62.3633 44.7723 60.7764 34.2723C60.7764 33.9541 60.7764 33.3178 60.459 32.9996C64.585 32.3632 69.3458 32.9996 71.5675 34.2723C76.0108 37.1359 77.5977 42.545 78.2325 47.9541C80.1368 53.045 81.7237 63.8632 82.0411 73.0905Z" fill="white"/>
<path d="M64.9025 66.0906C61.4113 67.9997 56.9679 65.4542 55.0636 61.9542C52.2072 56.8633 49.9855 41.5906 53.7941 36.8179C55.381 34.9088 58.2375 33.6361 61.7287 33.3179C61.7287 33.6361 62.0461 34.2724 62.0461 34.5906C63.633 45.0906 64.5851 55.5906 64.9025 66.0906Z" fill="white"/>
<path d="M45.8594 74.9997C44.9072 78.4997 42.0508 81.9997 38.5596 82.3179C35.3857 82.3179 32.2119 80.0906 30.9424 77.227C29.3555 74.3634 29.0381 70.8634 29.0381 67.6815C28.4033 58.7724 27.4512 49.5452 26.8164 40.6361C26.8164 39.3634 26.499 38.0906 26.499 37.1361C32.2119 38.0906 36.9727 42.227 39.8291 46.9997C43.0029 52.4088 44.2725 58.4543 45.542 64.1815C46.1768 67.6815 46.8115 71.4997 45.8594 74.9997Z" fill="white"/>
<path d="M85.2153 24.4088C84.8979 23.7724 84.2631 22.8179 83.9457 22.1815C68.394 14.227 49.9857 11.3634 33.4818 12.6361C15.7083 13.9088 13.804 22.4997 16.0257 37.7724C6.50424 43.1815 3.64779 54.9543 4.28255 65.4543C5.2347 67.3633 6.18685 69.5906 7.45639 71.4997C6.18685 60.6815 6.50424 47.9543 16.3431 40.9543C17.93 55.9088 19.5169 71.1815 23.0082 85.8179C23.9603 86.4543 25.2298 87.0906 26.4994 87.4088C22.3734 71.4997 20.7865 55.2724 19.1996 39.3634C21.1039 38.4088 23.0082 38.0906 25.2298 38.0906C25.8646 46.6815 26.4994 54.9543 27.4515 63.5452C27.7689 67.9997 27.7689 72.7724 29.6732 76.9088C33.1644 85.1815 43.6381 85.8179 47.1293 77.227C49.0336 73.0906 48.0814 68.3179 47.1293 63.8633C45.225 52.727 40.7816 38.727 28.4037 35.8634C28.4037 26.3179 40.1469 24.4088 47.4467 22.8179C54.1117 21.5452 59.5072 25.6815 60.4594 32.3634C52.8422 33.3179 50.6205 39.6815 50.9379 46.3634C51.5726 53.3634 51.89 62.2724 57.9203 66.727C60.142 68.3179 65.8549 69.5906 66.807 66.4088C66.4897 55.9088 65.2201 45.4088 63.6332 34.9088C74.1068 33.9543 77.5981 39.9997 78.5502 49.5452C79.8197 58.1361 80.7719 66.727 81.0893 75.3179C82.0414 74.0452 82.9936 72.7724 83.6283 71.4997C83.311 64.1815 82.3588 56.5452 81.0893 49.227C80.1371 38.4088 74.4242 30.4543 62.6811 32.0452C61.0941 20.2724 50.6205 18.6815 40.4642 21.5452C33.4818 23.1361 24.9125 26.6361 24.9125 35.227C22.6908 35.227 20.4691 35.5452 18.5648 36.1815C16.9779 22.1815 18.2474 16.7724 34.434 15.1815C49.9857 13.9088 69.6635 18.3634 86.1674 25.6815C85.85 25.3634 85.5326 25.0452 85.2153 24.4088ZM43.9554 63.8633C44.9076 67.6815 45.8597 72.1361 44.2728 75.9543C42.6859 80.4088 36.973 82.6361 33.7992 78.4997C31.2601 75.9543 30.6254 71.8179 30.308 68.3179C29.3558 58.4543 28.7211 48.5906 27.7689 38.727C38.5599 41.9088 42.0512 53.9997 43.9554 63.8633ZM63.3158 59.4088C63.3158 61.3179 63.6332 63.227 63.6332 65.1361C60.4594 65.7724 57.2855 63.5452 56.016 60.6815C53.7943 55.5906 50.3031 37.7724 57.6029 35.8634C58.5551 35.5452 59.5072 35.227 60.4594 34.9088C62.0463 43.1815 62.6811 51.4543 63.3158 59.4088Z" fill="#663366"/>
</g>
<defs>
<clipPath id="clip0">
<rect width="268.506" height="91" fill="white" transform="translate(0.15625 0.863281)"/>
</clipPath>
</defs>
</svg>
