<svg width="171" height="56" viewBox="0 0 171 56" fill="none" xmlns="http://www.w3.org/2000/svg">
<g clip-path="url(#clip0)">
<path d="M81.1379 18.0139C80.736 18.0139 80.3341 17.8181 79.9322 17.4265L76.3152 11.1608C76.1142 10.965 76.1142 10.7692 75.9133 10.5734C75.7123 10.3776 75.7123 10.1818 75.5114 9.98596H75.3105C75.3105 10.1818 75.3105 10.3776 75.3105 10.5734C75.3105 10.7692 75.3105 10.965 75.3105 11.3566V21.5384C75.3105 22.1258 74.7076 22.5174 73.5019 22.5174H72.6982C71.4925 22.5174 70.8896 22.1258 70.8896 21.5384V3.91603C70.8896 3.32862 71.4925 2.93701 72.6982 2.93701H74.5067C74.9086 2.93701 75.3104 2.93701 75.7123 3.13282C76.1142 3.32862 76.3152 3.52442 76.5161 3.72023L81.3388 11.944C81.3388 11.944 81.3388 12.1398 81.5398 12.1398L81.7407 12.3356C81.7407 12.3356 81.7407 12.1398 81.9416 12.1398C82.1426 12.1398 81.9416 11.944 82.1426 11.944L86.5634 3.72023C86.7643 3.52442 86.9653 3.32862 87.3672 3.13282C87.7691 2.93701 87.97 2.93701 88.5728 2.93701H89.9795C91.1851 2.93701 91.788 3.32862 91.788 3.91603V21.93C91.788 22.5174 91.1851 22.909 89.9795 22.909H89.1757C87.97 22.909 87.3672 22.5174 87.3672 21.93V11.5524C87.3672 11.3566 87.3672 11.1608 87.3672 10.7692C87.3672 10.5734 87.3672 10.3776 87.3672 10.1818H87.1662C87.1662 10.3776 86.9653 10.5734 86.7643 10.7692C86.5634 10.965 86.5634 11.1608 86.3624 11.3566L82.7454 17.6223C82.5445 18.0139 82.1426 18.2097 81.5398 18.2097H81.1379V18.0139Z" fill="#3D3635"/>
<path d="M98.8214 22.909C97.2139 22.909 96.2091 22.5173 95.6063 21.7341C95.0035 20.9509 94.6016 19.9719 94.6016 18.7971C94.6016 18.2097 94.6016 17.6222 94.8025 17.0348C95.0035 16.4474 95.4053 15.86 96.0082 15.2726C96.611 14.6852 97.4148 14.2936 98.4195 14.0978C99.4243 13.7062 101.032 13.7062 102.84 13.7062V12.7271C102.84 12.1397 102.639 11.7481 102.237 11.5523C101.836 11.3565 101.233 11.1607 100.429 11.1607C99.8262 11.1607 99.2233 11.1607 98.6205 11.3565C98.0176 11.5523 97.6158 11.7481 97.4148 11.7481C97.0129 11.9439 96.812 11.9439 96.812 11.9439C96.611 11.9439 96.4101 11.7481 96.2091 11.5523C96.0082 11.3565 95.8072 10.9649 95.6063 10.5733C95.4053 10.1817 95.4053 9.98588 95.4053 9.79007C95.4053 9.39846 95.6063 9.20266 96.2091 8.81105C96.611 8.41944 97.4148 8.22364 98.2186 8.02784C98.8214 7.83203 99.8261 7.83203 100.831 7.83203C102.438 7.83203 103.644 8.02784 104.448 8.41944C105.252 8.81105 106.055 9.39846 106.457 9.98588C106.859 10.7691 107.06 11.5523 107.06 12.3355V17.6222C107.06 18.6013 107.06 19.3845 107.06 19.7761C107.06 20.3635 107.261 20.7551 107.261 20.9509C107.261 21.1467 107.261 21.3425 107.261 21.7341C107.261 21.9299 107.06 22.1257 106.859 22.1257C106.658 22.3215 106.256 22.3215 105.855 22.3215C105.453 22.3215 105.051 22.5173 104.85 22.5173C104.448 22.5173 104.247 22.5173 104.046 22.5173C103.644 22.5173 103.443 22.3215 103.443 22.1257C103.242 21.9299 103.242 21.7341 103.041 21.3425C103.041 20.9509 102.84 20.7551 102.84 20.5593C102.84 20.7551 102.639 20.9509 102.237 21.3425C101.836 21.7341 101.434 21.9299 100.831 22.3215C100.429 22.7131 99.6252 22.909 98.8214 22.909ZM100.228 19.5803C100.831 19.5803 101.233 19.3845 101.836 18.9929C102.237 18.6013 102.639 18.2097 102.84 17.818V16.2516C102.237 16.2516 101.635 16.2516 101.032 16.4474C100.63 16.4474 100.027 16.6432 99.8261 16.839C99.4243 17.0348 99.2233 17.2306 99.0224 17.4264C98.8214 17.6222 98.8214 18.0138 98.8214 18.4055C98.8214 18.7971 99.0224 18.9929 99.2233 19.3845C99.4243 19.5803 99.8261 19.5803 100.228 19.5803Z" fill="#3D3635"/>
<path d="M112.485 28.3915C111.279 28.3915 110.677 27.9999 110.677 27.4125V12.9229C110.677 11.9439 110.677 11.3565 110.677 10.7691C110.677 10.1817 110.476 9.79007 110.476 9.59427C110.476 9.39847 110.476 9.20266 110.476 9.00686C110.476 8.81105 110.677 8.61525 110.877 8.61525C111.078 8.41944 111.48 8.41944 111.882 8.41944C112.284 8.41944 112.686 8.22364 112.887 8.22364C113.289 8.22364 113.49 8.22364 113.691 8.22364C114.093 8.22364 114.294 8.41944 114.294 8.61525C114.494 8.81105 114.494 9.00686 114.695 9.39847C114.695 9.39847 114.695 9.59427 114.695 9.79007C115.097 9.20266 115.499 8.61525 116.303 8.22364C116.906 8.02784 117.71 7.83203 118.714 7.83203C119.719 7.83203 120.724 8.02784 121.528 8.61525C122.331 9.20266 122.934 9.98588 123.537 11.1607C123.939 12.3355 124.14 13.7062 124.14 15.2726C124.14 17.6222 123.537 19.3845 122.532 20.7551C121.528 22.1257 119.92 22.909 118.112 22.909C117.509 22.909 116.906 22.909 116.303 22.7132C115.901 22.5173 115.499 22.3215 115.097 22.1257V27.6083C115.097 28.1957 114.494 28.5873 113.289 28.5873H112.485V28.3915ZM117.107 19.5803C117.911 19.5803 118.714 19.1887 119.116 18.4055C119.518 17.6222 119.719 16.6432 119.719 15.2726C119.719 13.902 119.518 12.9229 119.116 12.1397C118.714 11.3565 118.112 11.1607 117.308 11.1607C116.705 11.1607 116.303 11.3565 115.901 11.7481C115.499 12.1397 115.097 12.5313 114.896 12.9229V19.1887C115.097 19.3845 115.499 19.3845 115.7 19.5803C116.102 19.5803 116.504 19.5803 117.107 19.5803Z" fill="#3D3635"/>
<path d="M130.369 22.909C128.762 22.909 127.757 22.5173 127.154 21.7341C126.551 20.9509 126.149 19.9719 126.149 18.7971C126.149 18.2097 126.149 17.6222 126.35 17.0348C126.551 16.4474 126.953 15.86 127.556 15.2726C128.159 14.6852 128.963 14.2936 129.967 14.0978C130.972 13.7062 132.58 13.7062 134.388 13.7062V12.7271C134.388 12.1397 134.187 11.7481 133.785 11.5523C133.383 11.3565 132.781 11.1607 131.977 11.1607C131.374 11.1607 130.771 11.1607 130.168 11.3565C129.565 11.5523 129.164 11.7481 128.963 11.7481C128.561 11.9439 128.36 11.9439 128.36 11.9439C128.159 11.9439 127.958 11.7481 127.757 11.5523C127.556 11.3565 127.355 10.9649 127.154 10.5733C126.953 10.1817 126.953 9.98588 126.953 9.79007C126.953 9.39846 127.154 9.20266 127.757 8.81105C128.159 8.41944 128.963 8.22364 129.766 8.02784C130.57 7.83203 131.374 7.83203 132.58 7.83203C134.187 7.83203 135.393 8.02784 136.197 8.41944C137 8.81105 137.804 9.39846 138.206 9.98588C138.608 10.7691 138.809 11.5523 138.809 12.3355V17.6222C138.809 18.6013 138.809 19.3845 138.809 19.7761C138.809 20.3635 139.01 20.7551 139.01 20.9509C139.01 21.1467 139.01 21.3425 139.01 21.7341C139.01 21.9299 138.809 22.1257 138.608 22.1257C138.407 22.3215 138.005 22.3215 137.603 22.3215C137.201 22.3215 136.8 22.5173 136.599 22.5173C136.197 22.5173 135.996 22.5173 135.795 22.5173C135.393 22.5173 135.192 22.3215 135.192 22.1257C134.991 22.1257 134.79 21.9299 134.79 21.5383C134.79 21.1467 134.589 20.9509 134.589 20.7551C134.589 20.9509 134.388 21.1467 133.986 21.5383C133.584 21.9299 133.182 22.1257 132.58 22.5173C131.977 22.7131 131.374 22.909 130.369 22.909ZM131.776 19.5803C132.379 19.5803 132.781 19.3845 133.383 18.9929C133.785 18.6013 134.187 18.2097 134.388 17.818V16.2516C133.785 16.2516 133.182 16.2516 132.58 16.4474C132.178 16.4474 131.575 16.6432 131.374 16.839C130.972 17.0348 130.771 17.2306 130.57 17.4264C130.369 17.6222 130.369 18.0138 130.369 18.4055C130.369 18.7971 130.57 18.9929 130.771 19.3845C130.972 19.5803 131.374 19.5803 131.776 19.5803Z" fill="#3D3635"/>
<path d="M80.1337 53.2586C76.9185 53.2586 74.5072 52.4754 72.8996 50.7132C71.2921 49.1468 70.4883 46.6013 70.4883 43.0768C70.4883 36.4195 73.7034 33.0908 80.1337 33.0908C80.7365 33.0908 81.3393 33.0908 82.1431 33.2866C82.746 33.2866 83.3488 33.4824 83.9516 33.6782C84.5545 33.874 84.9564 34.0698 85.3583 34.2656C85.7602 34.4615 86.162 34.8531 86.162 35.2447C86.162 35.4405 85.9611 35.8321 85.7601 36.2237C85.5592 36.6153 85.3583 37.0069 84.9564 37.3985C84.7554 37.7901 84.3535 37.9859 84.1526 37.9859C83.9516 37.9859 83.7507 37.9859 83.5497 37.7901C83.1479 37.5943 82.746 37.3985 82.1431 37.3985C81.5403 37.2027 80.7365 37.2027 79.9327 37.2027C78.3252 37.2027 76.9185 37.7901 76.1148 38.7691C75.311 39.7482 74.9091 41.3146 74.9091 43.4684C74.9091 45.6223 75.311 47.1887 76.1148 48.1677C76.9185 49.3426 78.1242 49.7342 79.7318 49.7342C80.7365 49.7342 81.3393 49.7342 82.1431 49.5384C82.746 49.3426 83.3488 49.1468 83.7507 48.951C84.1526 48.7552 84.3535 48.7552 84.5545 48.7552C84.9564 48.7552 85.1573 48.951 85.3583 49.3426C85.5592 49.7342 85.7602 50.1258 85.9611 50.5174C86.162 50.909 86.162 51.1048 86.162 51.3006C86.162 51.4964 86.162 51.888 85.9611 52.0838C85.7602 52.2796 85.5592 52.4754 85.1573 52.6712C84.7554 52.867 84.1526 53.0628 83.5497 53.2586C82.9469 53.4545 82.3441 53.4545 81.5403 53.6503C81.3393 53.0628 80.7365 53.2586 80.1337 53.2586Z" fill="#3D3635"/>
<path d="M92.7931 53.2586C91.3865 53.2586 90.3818 52.867 89.578 52.0837C88.9751 51.3005 88.5732 50.1257 88.5732 48.5593V39.1607C88.5732 38.5732 89.1761 38.1816 90.3818 38.1816H91.1855C92.3912 38.1816 92.9941 38.5732 92.9941 39.1607V47.9719C92.9941 48.5593 93.195 48.9509 93.3959 49.3425C93.5969 49.7341 94.1997 49.7341 94.8026 49.7341C95.4054 49.7341 95.8073 49.5383 96.2092 49.1467C96.6111 48.7551 96.812 48.3635 97.013 48.1677V39.1607C97.013 38.5732 97.6158 38.1816 98.8215 38.1816H99.6253C100.831 38.1816 101.434 38.5732 101.434 39.1607V47.9719C101.434 48.9509 101.434 49.7341 101.434 50.1257C101.434 50.7131 101.635 51.1047 101.635 51.3005C101.635 51.4963 101.635 51.6921 101.635 52.0837C101.635 52.2795 101.434 52.4753 101.233 52.4753C101.032 52.6712 100.63 52.6712 100.228 52.6712C99.8262 52.6712 99.4243 52.867 99.2234 52.867C98.8215 52.867 98.6205 52.867 98.4196 52.867C98.0177 52.867 97.8168 52.6712 97.8168 52.4753C97.6158 52.2795 97.6158 52.0837 97.4149 51.6921C97.4149 51.3005 97.2139 51.1047 97.2139 50.9089C96.812 51.4963 96.2092 51.8879 95.4054 52.2795C94.6016 52.867 93.7978 53.2586 92.7931 53.2586Z" fill="#3D3635"/>
<path d="M108.668 53.2587C108.065 53.2587 107.462 53.2587 106.86 53.0629C106.257 52.8671 105.855 52.6713 105.453 52.2796C105.051 51.888 104.85 51.4964 104.649 50.909C104.448 50.3216 104.448 49.7342 104.448 48.951V33.0908C104.448 32.5034 105.051 32.1118 106.257 32.1118H107.061C108.266 32.1118 108.869 32.5034 108.869 33.0908V49.1468C108.869 49.5384 108.869 49.93 109.07 50.1258C109.271 50.3216 109.472 50.5174 109.874 50.5174C110.075 50.5174 110.075 50.5174 110.276 50.5174C110.477 50.5174 110.477 50.5174 110.678 50.5174C110.878 50.5174 111.079 50.7132 111.079 50.909C111.28 51.3006 111.28 51.4964 111.481 51.888C111.481 52.2796 111.481 52.4754 111.481 52.4754C111.481 52.8671 111.28 53.2587 110.878 53.4545C110.477 53.6503 110.075 53.8461 109.673 53.8461C109.271 53.0629 108.869 53.2587 108.668 53.2587Z" fill="#3D3635"/>
<path d="M117.308 53.2586C116.706 53.2586 116.103 53.2586 115.5 53.0628C114.897 52.867 114.495 52.6712 114.093 52.2796C113.691 51.888 113.49 51.4964 113.289 50.909C113.088 50.3216 113.088 49.7341 113.088 48.9509V41.902H112.687C112.084 41.902 111.883 41.5104 111.883 40.5313V40.1397C111.883 39.1607 112.084 38.7691 112.687 38.7691H113.088L113.49 36.0278C113.49 35.4404 114.093 35.0488 115.098 35.0488H115.902C116.906 35.0488 117.308 35.4404 117.308 36.0278V38.7691H118.715C119.318 38.7691 119.519 39.1607 119.519 40.1397V40.5313C119.519 41.5104 119.318 41.902 118.715 41.902H117.308V48.9509C117.308 49.3425 117.308 49.7341 117.509 49.9299C117.71 50.1257 117.911 50.3216 118.313 50.3216C118.514 50.3216 118.514 50.3216 118.715 50.3216C118.916 50.3216 118.916 50.3216 119.117 50.3216C119.318 50.3216 119.519 50.5174 119.519 50.7132C119.72 51.1048 119.72 51.3006 119.921 51.6922C120.122 52.0838 120.122 52.2796 120.122 52.2796C120.122 52.6712 119.921 53.0628 119.519 53.2586C119.117 53.4544 118.715 53.6502 118.313 53.6502C117.911 53.0628 117.71 53.2586 117.308 53.2586Z" fill="#3D3635"/>
<path d="M126.351 53.2586C124.944 53.2586 123.939 52.867 123.136 52.0837C122.533 51.3005 122.131 50.1257 122.131 48.5593V39.1607C122.131 38.5732 122.734 38.1816 123.939 38.1816H124.743C125.949 38.1816 126.552 38.5732 126.552 39.1607V47.9719C126.552 48.5593 126.753 48.9509 126.954 49.3425C127.155 49.7341 127.757 49.7341 128.36 49.7341C128.963 49.7341 129.365 49.5383 129.767 49.1467C130.169 48.7551 130.37 48.3635 130.571 48.1677V39.1607C130.571 38.5732 131.173 38.1816 132.379 38.1816H133.183C134.389 38.1816 134.991 38.5732 134.991 39.1607V47.9719C134.991 48.9509 134.991 49.7341 134.991 50.1257C134.991 50.7131 135.192 51.1047 135.192 51.3005C135.192 51.4963 135.192 51.6921 135.192 52.0837C135.192 52.2795 134.991 52.4753 134.79 52.4753C134.59 52.6712 134.188 52.6712 133.786 52.6712C133.384 52.6712 132.982 52.867 132.781 52.867C132.379 52.867 132.178 52.867 131.977 52.867C131.575 52.867 131.374 52.6712 131.374 52.4753C131.173 52.2795 131.173 52.0837 130.972 51.6921C130.972 51.3005 130.772 51.1047 130.772 50.9089C130.37 51.4963 129.767 51.8879 128.963 52.2795C128.159 52.867 127.355 53.2586 126.351 53.2586Z" fill="#3D3635"/>
<path d="M139.814 53.063C138.608 53.063 138.006 52.6714 138.006 52.084V43.2728C138.006 42.2938 138.006 41.7064 138.006 41.1189C138.006 40.5315 137.805 40.1399 137.805 39.9441C137.805 39.7483 137.805 39.5525 137.805 39.3567C137.805 39.1609 138.006 38.9651 138.207 38.9651C138.408 38.7693 138.809 38.7693 139.211 38.7693C139.613 38.7693 140.015 38.5735 140.216 38.5735C140.618 38.5735 140.819 38.5735 141.02 38.5735C141.422 38.5735 141.623 38.7693 141.623 38.9651C141.623 39.1609 141.824 39.3567 142.025 39.7483C142.225 40.1399 142.225 40.3357 142.225 40.5315C142.627 39.9441 142.828 39.5525 143.431 38.9651C143.833 38.5735 144.637 38.3777 145.441 38.3777C146.244 38.3777 146.646 38.5735 146.847 38.7693C147.048 38.9651 147.048 39.3567 147.048 39.9441C147.048 40.1399 147.048 40.3357 146.847 40.7273C146.847 41.1189 146.646 41.5106 146.445 41.7064C146.244 42.098 146.244 42.098 146.043 42.098C145.842 42.098 145.642 42.098 145.441 41.9022C145.24 41.9022 145.039 41.7064 144.637 41.7064C144.235 41.7064 143.833 41.7064 143.632 41.9022C143.23 42.098 143.029 42.2938 142.828 42.4896C142.627 42.6854 142.426 42.8812 142.426 43.077V52.084C142.426 52.6714 141.824 53.063 140.618 53.063H139.814Z" fill="#3D3635"/>
<path d="M151.269 53.2586C149.661 53.2586 148.656 52.867 148.054 52.0837C147.451 51.3005 147.049 50.3215 147.049 49.1467C147.049 48.5593 147.049 47.9719 147.25 47.3844C147.451 46.797 147.853 46.2096 148.455 45.6222C149.058 45.0348 149.862 44.6432 150.867 44.4474C151.872 44.0558 153.479 44.0558 155.288 44.0558V43.0767C155.288 42.4893 155.087 42.0977 154.685 41.9019C154.283 41.7061 153.68 41.5103 152.876 41.5103C152.273 41.5103 151.671 41.5103 151.068 41.7061C150.465 41.9019 150.063 42.0977 149.862 42.0977C149.46 42.2935 149.259 42.2935 149.259 42.2935C149.058 42.2935 148.857 42.0977 148.656 41.9019C148.455 41.7061 148.255 41.3145 148.054 40.9229C147.853 40.5313 147.853 40.3355 147.853 40.1397C147.853 39.7481 148.054 39.5523 148.656 39.1607C149.058 38.7691 149.862 38.5732 150.666 38.3774C151.47 38.1816 152.474 38.1816 153.479 38.1816C155.087 38.1816 156.292 38.3774 157.096 38.7691C157.9 39.1607 158.704 39.7481 159.106 40.3355C159.507 41.1187 159.708 41.9019 159.708 42.6851V47.9719C159.708 48.9509 159.708 49.7341 159.708 50.1257C159.708 50.7131 159.909 51.1047 159.909 51.3005C159.909 51.4963 159.909 51.6921 159.909 52.0837C159.909 52.2795 159.708 52.4753 159.507 52.4753C159.307 52.6712 158.905 52.6712 158.503 52.6712C158.101 52.6712 157.699 52.867 157.498 52.867C157.096 52.867 156.895 52.867 156.694 52.867C156.292 52.867 156.091 52.6712 156.091 52.4753C155.89 52.2795 155.89 52.0837 155.69 51.6921C155.69 51.3005 155.489 51.1047 155.489 50.9089C155.489 51.1047 155.288 51.3005 154.886 51.6921C154.484 52.0837 154.082 52.2795 153.479 52.6712C152.876 53.0628 152.273 53.2586 151.269 53.2586ZM152.675 49.9299C153.278 49.9299 153.68 49.7341 154.283 49.3425C154.685 48.9509 155.087 48.5593 155.288 48.1677V46.6012C154.685 46.6012 154.082 46.6012 153.479 46.797C153.077 46.797 152.474 46.9928 152.273 47.1886C151.872 47.3844 151.671 47.5802 151.47 47.776C151.269 47.9719 151.269 48.3635 151.269 48.7551C151.269 49.1467 151.47 49.3425 151.671 49.7341C151.872 49.7341 152.273 49.9299 152.675 49.9299Z" fill="#3D3635"/>
<path d="M167.344 53.2587C166.741 53.2587 166.138 53.2587 165.535 53.0629C164.933 52.8671 164.531 52.6713 164.129 52.2796C163.727 51.888 163.526 51.4964 163.325 50.909C163.124 50.3216 163.124 49.7342 163.124 48.951V33.0908C163.124 32.5034 163.727 32.1118 164.933 32.1118H165.736C166.942 32.1118 167.545 32.5034 167.545 33.0908V49.1468C167.545 49.5384 167.545 49.93 167.746 50.1258C167.947 50.3216 168.148 50.5174 168.55 50.5174C168.75 50.5174 168.75 50.5174 168.951 50.5174C169.152 50.5174 169.152 50.5174 169.353 50.5174C169.554 50.5174 169.755 50.7132 169.755 50.909C169.956 51.3006 169.956 51.4964 170.157 51.888C170.157 52.2796 170.157 52.4754 170.157 52.4754C170.157 52.8671 169.956 53.2587 169.554 53.4545C169.152 53.6503 168.75 53.8461 168.349 53.8461C167.947 53.0629 167.545 53.2587 167.344 53.2587Z" fill="#3D3635"/>
<path d="M54.0107 14.4895C47.5804 11.1608 40.3464 9.00699 33.1123 8.22378C29.4953 7.83217 25.6773 7.83217 22.0603 8.02797C19.0461 8.22378 14.2234 8.22378 12.4149 10.7692C12.214 10.965 12.013 11.1608 11.8121 11.3566C11.8121 11.7483 11.6111 11.9441 11.4102 12.1399C11.4102 12.3357 11.2092 12.7273 11.2092 12.9231C10.8073 14.2937 10.6064 15.6643 10.6064 17.2308C10.6064 17.4266 10.6064 17.6224 10.6064 17.8182C10.6064 18.014 10.6064 18.2098 10.6064 18.2098C10.6064 18.4056 10.6064 18.4056 10.6064 18.6014C10.6064 18.7972 10.6064 18.993 10.6064 19.1888C10.6064 19.3846 10.6064 19.7762 10.6064 19.972C10.6064 20.1678 10.6064 20.3636 10.6064 20.5594C10.6064 20.7552 10.6064 20.951 10.6064 21.1469C10.6064 21.3427 10.6064 21.7343 10.6064 21.9301C10.6064 22.3217 10.6064 22.7133 10.8073 22.9091C10.8073 23.3007 10.6064 23.4965 10.2045 23.6923C7.59222 25.2587 5.58276 28 4.57803 30.9371C3.37236 34.4615 3.37236 37.986 3.77425 41.7063C3.37236 41.1189 2.97047 40.3357 2.76952 39.7482C1.16195 36.2238 0.157227 32.3077 0.157227 28C0.157227 12.5315 13.0177 0 28.8925 0C39.1407 0 48.1832 5.28671 53.2069 13.1189C53.4078 13.5105 53.8097 14.0979 54.0107 14.4895Z" fill="#793C7C"/>
<path d="M57.6274 27.9999C57.6274 33.6783 55.8189 38.965 53.0057 43.2727C52.8047 43.6643 52.4028 44.0559 52.2019 44.4475C52.001 38.7692 50.9962 32.1118 50.5943 29.1748C50.1924 26.0419 49.1877 22.5174 46.3745 20.7552C44.9679 19.7762 41.9537 19.5804 39.3414 19.972C38.9395 17.8181 38.3367 15.6643 36.7291 14.2936C33.7149 11.3566 28.6913 12.5314 24.6723 13.7062C22.261 14.4895 19.4478 15.4685 18.0411 17.6223C17.2374 18.9929 17.0364 20.5594 17.0364 22.1258C16.8355 22.1258 16.6345 22.1258 16.4336 22.1258C14.6251 21.93 13.0175 22.3216 11.4099 23.1048C11.4099 22.7132 11.4099 22.3216 11.209 22.1258C11.209 21.93 11.209 21.7342 11.209 21.3426C11.209 21.1468 11.209 20.951 11.209 20.7552C11.209 20.5594 11.209 20.3636 11.209 20.1678C11.209 19.972 11.209 19.5804 11.209 19.3846C11.209 19.1887 11.209 18.9929 11.209 18.7971C11.209 18.6013 11.209 18.6013 11.209 18.4055C11.209 18.2097 11.209 18.0139 11.209 18.0139C11.209 17.8181 11.209 17.6223 11.209 17.4265C11.209 16.0559 11.4099 14.4895 11.8118 13.1188C11.8118 12.923 12.0128 12.5314 12.0128 12.3356C11.6109 11.944 11.8118 11.7482 11.8118 11.3566C12.0128 11.1608 12.2137 10.965 12.4147 10.7692C14.4241 8.22372 19.0459 8.22372 22.06 8.02791C25.6771 7.6363 29.495 7.83211 33.1121 8.22372C40.3461 9.00693 47.5801 11.1608 54.0104 14.6853C54.2114 14.8811 54.4123 15.2727 54.4123 15.6643C56.4218 19.1888 57.6274 23.4964 57.6274 27.9999Z" fill="#E96233"/>
<path d="M15.6306 52.8672C15.2287 52.6714 14.8268 52.4756 14.6258 52.2798C10.6069 50.126 7.39179 46.9931 4.98044 43.2728C4.57855 42.6854 4.17666 42.098 3.97571 41.5106C3.57382 37.9861 3.57382 34.2658 4.7795 30.7413C5.78422 27.8043 7.79368 25.063 10.406 23.4966C10.6069 23.3008 11.0088 23.105 11.2098 23.105C11.2098 23.4966 11.2098 23.8882 11.4107 24.2798C12.0135 28.9791 12.2145 33.6784 13.0183 38.3777C13.2192 40.9232 14.2239 47.5805 15.6306 52.8672Z" fill="#2C9AD1"/>
<path d="M52.0015 44.4476C51.8005 44.8393 51.3986 45.2309 51.1977 45.6225C51.1977 45.6225 51.1977 45.8183 50.9968 45.8183C45.7722 52.084 37.7343 56.0001 28.6918 56.0001C25.0748 56.0001 21.4577 55.4127 18.2426 54.042C17.6398 53.8462 17.0369 53.6504 16.4341 53.2588C16.0322 53.063 15.8313 52.8672 15.4294 52.6714C14.0227 47.3847 13.018 40.7274 12.6161 38.1819C11.8123 33.4826 11.6114 28.7833 11.0086 24.084C11.0086 23.6924 11.0086 23.3008 10.8076 22.9092C12.4152 22.126 14.0227 21.7344 15.8313 21.9302C16.0322 21.9302 16.2332 21.9302 16.4341 21.9302C16.4341 22.7134 16.4341 23.4966 16.635 24.084C17.0369 29.5665 17.6398 35.2448 18.0417 40.7274C18.2426 42.6854 18.4436 44.8392 19.2473 46.6015C20.2521 48.3637 22.0606 49.9302 24.07 49.7344C26.4814 49.5386 28.2899 47.5805 28.6918 45.2309C29.2946 43.077 28.6918 40.7274 28.2899 38.5735C27.4861 34.8532 26.6823 31.133 24.6729 28.0001C22.8644 24.8672 19.8502 22.3218 16.2332 21.9302C16.2332 20.3637 16.4341 18.7973 17.2379 17.4267C18.6445 15.2728 21.2568 14.2938 23.8691 13.5106C27.888 12.3358 32.9116 11.1609 35.9258 14.098C37.5334 15.4686 38.1362 17.6225 38.5381 19.7763C36.3277 19.9721 34.5192 20.7553 33.5145 21.9302C31.3041 24.8672 32.7107 34.2658 34.3183 37.3987C35.5239 39.5525 38.3372 41.119 40.5476 39.9441C40.3466 33.4826 39.5429 27.0211 38.5381 20.5595C38.5381 20.3637 38.5381 19.9721 38.3372 19.7763C40.9495 19.3847 43.9637 19.7763 45.3703 20.5595C48.1835 22.3218 49.1882 25.6504 49.5901 28.9791C50.7958 32.112 51.8005 38.7693 52.0015 44.4476Z" fill="#F09C51"/>
<path d="M41.1495 40.1398C38.9391 41.3146 36.1259 39.7482 34.9202 37.5943C33.1117 34.4614 31.7051 25.0628 34.1164 22.1258C35.1212 20.9509 36.9297 20.1677 39.1401 19.9719C39.1401 20.1677 39.341 20.5593 39.341 20.7551C40.3457 27.2167 40.9486 33.6782 41.1495 40.1398Z" fill="#793C7C"/>
<path d="M29.0936 45.6225C28.4908 47.7763 26.6823 49.9302 24.4719 50.126C22.4624 50.126 20.453 48.7554 19.6492 46.9931C18.6444 45.2309 18.4435 43.077 18.4435 41.119C18.0416 35.6365 17.4388 29.9581 17.0369 24.4756C17.0369 23.6924 16.8359 22.9092 16.8359 22.3218C20.453 22.9092 23.4671 25.4546 25.2757 28.3917C27.2851 31.7204 28.0889 35.4407 28.8927 38.9651C29.2946 41.119 29.6965 43.4686 29.0936 45.6225Z" fill="#2C9AD1"/>
<path d="M54.0103 14.4896C53.8094 14.098 53.4075 13.5106 53.2066 13.1189C43.3602 8.22384 31.7054 6.4616 21.2562 7.24482C10.0032 8.02804 8.79757 13.3148 10.2042 22.7134C4.17582 26.042 2.36731 33.2868 2.7692 39.7483C3.37204 40.9231 3.97487 42.2938 4.77866 43.4686C3.97487 36.8113 4.17582 28.9791 10.4051 24.6714C11.4099 33.8742 12.4146 43.2728 14.625 52.2798C15.2278 52.6714 16.0316 53.063 16.8354 53.2588C14.2231 43.4686 13.2184 33.4826 12.2136 23.6924C13.4193 23.105 14.625 22.9092 16.0316 22.9092C16.4335 28.1959 16.8354 33.2868 17.4382 38.5735C17.6392 41.3147 17.6392 44.2518 18.8449 46.7973C21.0553 51.8882 27.6865 52.2798 29.8969 46.9931C31.1025 44.4476 30.4997 41.5105 29.8969 38.7693C28.6912 31.9161 25.8779 23.3008 18.0411 21.5385C18.0411 15.6644 25.4761 14.4896 30.0978 13.5106C34.3177 12.7273 37.7337 15.2728 38.3366 19.3847C33.5139 19.9721 32.1073 23.8882 32.3082 28.0001C32.7101 32.3078 32.911 37.7903 36.729 40.5315C38.1356 41.5106 41.7527 42.2938 42.3555 40.3357C42.1545 33.8742 41.3508 27.4127 40.346 20.9511C46.9772 20.3637 49.1876 24.084 49.7905 29.9581C50.5943 35.2448 51.1971 40.5315 51.398 45.8182C52.0009 45.035 52.6037 44.2518 53.0056 43.4686C52.8047 38.9651 52.2018 34.2658 51.398 29.7623C50.7952 23.105 47.1782 18.2099 39.7432 19.1889C38.7385 11.9441 32.1073 10.9651 25.677 12.7273C21.2562 13.7064 15.8307 15.8602 15.8307 21.1469C14.424 21.1469 13.0174 21.3427 11.8118 21.7343C10.807 13.1189 11.6108 9.79027 21.859 8.81125C31.7054 8.02804 44.164 10.7693 54.6132 15.2728C54.4122 15.077 54.2113 14.8812 54.0103 14.4896ZM27.8874 38.7693C28.4902 41.1189 29.0931 43.8602 28.0883 46.2099C27.0836 48.9511 23.4666 50.3217 21.4571 47.7763C19.8496 46.2099 19.4477 43.6644 19.2467 41.5106C18.6439 35.4406 18.242 29.3707 17.6392 23.3008C24.4713 25.2588 26.6817 32.6994 27.8874 38.7693ZM40.1451 36.028C40.1451 37.2029 40.346 38.3777 40.346 39.5525C38.3366 39.9441 36.3271 38.5735 35.5233 36.8112C34.1167 33.6784 31.9063 22.7134 36.5281 21.5385C37.1309 21.3427 37.7337 21.1469 38.3366 20.9511C39.3413 26.042 39.7432 31.1329 40.1451 36.028Z" fill="white"/>
</g>
<defs>
<clipPath id="clip0">
<rect width="170" height="56" fill="white" transform="translate(0.157227)"/>
</clipPath>
</defs>
</svg>
